<svg width="375" height="1366" viewBox="0 0 375 1366" fill="none" xmlns="http://www.w3.org/2000/svg">
    <circle cx="187.5" cy="1218.5" r="147" fill="white" stroke="#E8E9EF"/>
    <text fill="#2C2E32" xml:space="preserve" style="white-space: pre" font-family="Gotham Pro" font-size="16"
          letter-spacing="0em"><tspan x="138.422" y="1178.22">&#x41c;&#x44b; &#x441;&#x43e;&#x437;&#x434;&#x430;&#x435;&#x43c; </tspan>
        <tspan x="118.703" y="1202.22">&#x438;&#x43d;&#x434;&#x438;&#x432;&#x438;&#x434;&#x443;&#x430;&#x43b;&#x44c;&#x43d;&#x44b;&#x435; </tspan>
        <tspan x="71.9922" y="1226.22">&#x438;&#x43d;&#x442;&#x435;&#x440;&#x444;&#x435;&#x439;&#x441;&#x44b;, &#x432;&#x435;&#x431;-&#x43f;&#x440;&#x43e;&#x435;&#x43a;&#x442;&#x44b; &#x441; </tspan>
        <tspan x="95.4531" y="1250.22">&#x445;&#x43e;&#x440;&#x43e;&#x448;&#x43e; &#x43f;&#x440;&#x43e;&#x434;&#x443;&#x43c;&#x430;&#x43d;&#x43d;&#x44b;&#x43c; </tspan>
        <tspan x="146.109" y="1274.22">&#x434;&#x438;&#x437;&#x430;&#x439;&#x43d;&#x43e;&#x43c;.</tspan></text>
    <path d="M334.215 1203.3C332.148 1183.35 326.031 1164.02 316.237 1146.51C306.443 1128.99 293.179 1113.66 277.257 1101.45C261.334 1089.24 243.088 1080.41 223.634 1075.49C204.181 1070.58 183.928 1069.68 164.117 1072.87L164.211 1073.45C183.943 1070.28 204.114 1071.17 223.49 1076.07C242.865 1080.96 261.039 1089.76 276.897 1101.92C292.756 1114.08 305.967 1129.35 315.721 1146.79C325.476 1164.24 331.569 1183.49 333.627 1203.37L334.215 1203.3Z"
          fill="#722ED1"/>
    <path d="M285 1109L253.5 339" stroke="#722ED1"/>
    <circle cx="187.5" cy="883.5" r="147" fill="white" stroke="#E8E9EF"/>
    <text fill="#2C2E32" xml:space="preserve" style="white-space: pre" font-family="Gotham Pro" font-size="16"
          letter-spacing="0em"><tspan x="73.0312" y="876.46">&#x41c;&#x44b; &#x433;&#x435;&#x43d;&#x435;&#x440;&#x438;&#x440;&#x443;&#x435;&#x43c; &#x43d;&#x43e;&#x432;&#x44b;&#x435; &#x438;&#x434;&#x435;&#x438; </tspan>
        <tspan x="104.891" y="900.46">&#x434;&#x43b;&#x44f; &#x432;&#x430;&#x448;&#x435;&#x433;&#x43e; &#x431;&#x438;&#x437;&#x43d;&#x435;&#x441;&#x430;</tspan></text>
    <path d="M187.5 736C153.544 736 120.629 747.715 94.3087 769.169C67.9887 790.622 49.8767 820.499 43.0298 853.758L43.6085 853.877C50.428 820.752 68.4675 790.994 94.682 769.627C120.896 748.259 153.68 736.591 187.5 736.591L187.5 736Z"
          fill="#722ED1"/>
    <path d="M86 777L121 326" stroke="#722ED1"/>
    <g filter="url(#filter2_d)">
        <circle cx="187.5" cy="213.5" r="147.5" fill="white"/>
    </g>
    <text fill="#2C2E32" xml:space="preserve" style="white-space: pre" font-family="Gotham Pro" font-size="24"
          letter-spacing="0em"><tspan x="152.414" y="174.288">&#x41e; &#x43d;&#x430;&#x441;</tspan></text>
    <text fill="#2C2E32" xml:space="preserve" style="white-space: pre" font-family="Gotham Pro" font-size="16"
          letter-spacing="0em"><tspan x="131.992" y="213.784">&#x41c;&#x44b; - &#x43a;&#x43e;&#x43c;&#x430;&#x43d;&#x434;&#x430; </tspan>
        <tspan x="74.2111" y="237.784">&#x440;&#x430;&#x437;&#x440;&#x430;&#x431;&#x43e;&#x442;&#x447;&#x438;&#x43a;&#x43e;&#x432; IT &#x43f;&#x440;&#x43e;&#x435;&#x43a;&#x442;&#x43e;&#x432; </tspan>
        <tspan x="124.68" y="261.784">&#x434;&#x43b;&#x44f; &#x437;&#x430;&#x43a;&#x430;&#x437;&#x447;&#x438;&#x43a;&#x43e;&#x432;</tspan></text>
    <circle cx="187.5" cy="548.5" r="147" fill="white" stroke="#E8E9EF"/>
    <path d="M277.372 431.541C251.478 411.645 219.714 400.903 187.059 401.001C154.404 401.098 122.705 412.029 96.9308 432.081L97.2936 432.547C122.965 412.576 154.537 401.689 187.061 401.592C219.585 401.494 251.222 412.193 277.012 432.01L277.372 431.541Z"
          fill="#722ED1"/>
    <path d="M188 401V361" stroke="#722ED1"/>
    <text fill="#2C2E32" xml:space="preserve" style="white-space: pre" font-family="Gotham Pro" font-size="16"
          letter-spacing="0em"><tspan x="75.7109" y="513.56">&#x41c;&#x44b; &#x43f;&#x440;&#x435;&#x434;&#x43e;&#x441;&#x442;&#x430;&#x432;&#x43b;&#x44f;&#x435;&#x43c; &#x43f;&#x43e;&#x43b;&#x43d;&#x44b;&#x439; </tspan>
        <tspan x="132.328" y="537.56">&#x441;&#x43f;&#x435;&#x43a;&#x442;&#x440; &#x443;&#x441;&#x43b;&#x443;&#x433;:&#10;</tspan>
        <tspan x="65.6875" y="561.56">&#x43e;&#x442; &#x441;&#x43e;&#x441;&#x442;&#x430;&#x432;&#x43b;&#x435;&#x43d;&#x438;&#x44f; &#x442;&#x435;&#x445;&#x43d;&#x438;&#x447;&#x435;&#x441;&#x43a;&#x43e;&#x433;&#x43e; </tspan>
        <tspan x="85.5703" y="585.56">&#x437;&#x430;&#x434;&#x430;&#x43d;&#x438;&#x44f; &#x434;&#x43e; &#x434;&#x430;&#x43b;&#x44c;&#x43d;&#x435;&#x439;&#x448;&#x435;&#x433;&#x43e; </tspan>
        <tspan x="83.6875" y="609.56">&#x441;&#x43e;&#x43f;&#x440;&#x43e;&#x432;&#x43e;&#x436;&#x434;&#x435;&#x43d;&#x438;&#x44f; &#x43f;&#x440;&#x43e;&#x435;&#x43a;&#x442;&#x430;.</tspan></text>
    <defs>
        <filter id="filter2_d" x="-30" y="0" width="435" height="435" filterUnits="userSpaceOnUse"
                color-interpolation-filters="sRGB">
            <feFlood flood-opacity="0" result="BackgroundImageFix"/>
            <feColorMatrix in="SourceAlpha" type="matrix" values="0 0 0 0 0 0 0 0 0 0 0 0 0 0 0 0 0 0 127 0"/>
            <feOffset dy="4"/>
            <feGaussianBlur stdDeviation="35"/>
            <feColorMatrix type="matrix" values="0 0 0 0 0.874271 0 0 0 0 0.883808 0 0 0 0 0.908333 0 0 0 0.35 0"/>
            <feBlend mode="normal" in2="BackgroundImageFix" result="effect1_dropShadow"/>
            <feBlend mode="normal" in="SourceGraphic" in2="effect1_dropShadow" result="shape"/>
        </filter>
    </defs>
</svg>
