<svg width="60" height="85" viewBox="0 0 60 85" fill="none" xmlns="http://www.w3.org/2000/svg">
<path d="M17.9998 55.6998H49.9998V54.2998H17.9998V55.6998Z" fill="#722ED1"/>
<path d="M49.9998 65.6998H17.9998V64.2998H49.9998V65.6998Z" fill="#722ED1"/>
<path d="M17.9998 75.6998H49.9998V74.2998H17.9998V75.6998Z" fill="#722ED1"/>
<path fill-rule="evenodd" clip-rule="evenodd" d="M12.9998 57.9998C14.6567 57.9998 15.9998 56.6567 15.9998 54.9998C15.9998 53.343 14.6567 51.9998 12.9998 51.9998C11.3429 51.9998 9.9998 53.343 9.9998 54.9998C9.9998 56.6567 11.3429 57.9998 12.9998 57.9998ZM12.9998 56.5998C13.8835 56.5998 14.5998 55.8835 14.5998 54.9998C14.5998 54.1161 13.8835 53.3998 12.9998 53.3998C12.1161 53.3998 11.3998 54.1161 11.3998 54.9998C11.3998 55.8835 12.1161 56.5998 12.9998 56.5998Z" fill="#722ED1"/>
<path fill-rule="evenodd" clip-rule="evenodd" d="M15.9998 64.9998C15.9998 66.6567 14.6567 67.9998 12.9998 67.9998C11.3429 67.9998 9.9998 66.6567 9.9998 64.9998C9.9998 63.343 11.3429 61.9998 12.9998 61.9998C14.6567 61.9998 15.9998 63.343 15.9998 64.9998ZM14.5998 64.9998C14.5998 65.8835 13.8835 66.5998 12.9998 66.5998C12.1161 66.5998 11.3998 65.8835 11.3998 64.9998C11.3998 64.1161 12.1161 63.3998 12.9998 63.3998C13.8835 63.3998 14.5998 64.1161 14.5998 64.9998Z" fill="#722ED1"/>
<path fill-rule="evenodd" clip-rule="evenodd" d="M12.9998 77.9998C14.6567 77.9998 15.9998 76.6567 15.9998 74.9998C15.9998 73.3429 14.6567 71.9998 12.9998 71.9998C11.3429 71.9998 9.9998 73.3429 9.9998 74.9998C9.9998 76.6567 11.3429 77.9998 12.9998 77.9998ZM12.9998 76.5998C13.8835 76.5998 14.5998 75.8835 14.5998 74.9998C14.5998 74.1161 13.8835 73.3998 12.9998 73.3998C12.1161 73.3998 11.3998 74.1161 11.3998 74.9998C11.3998 75.8835 12.1161 76.5998 12.9998 76.5998Z" fill="#722ED1"/>
<path fill-rule="evenodd" clip-rule="evenodd" d="M9.2998 24.2998V45.6998H50.6998V24.2998H9.2998ZM10.6998 43.6204V26.1324L28.2992 34.9321L10.6998 43.6204ZM12.4863 44.2998L29.8704 35.7177L47.0346 44.2998H12.4863ZM31.4457 34.9401L49.2998 43.8672V26.126L31.4457 34.9401ZM29.8744 34.1545L47.0005 25.6998H12.9651L29.8744 34.1545Z" fill="#722ED1"/>
<path fill-rule="evenodd" clip-rule="evenodd" d="M23.9849 3.58588C25.1564 1.98816 27.091 0.299805 29.9997 0.299805C32.9085 0.299805 34.843 1.98816 36.0146 3.58588C36.6019 4.38686 37.0129 5.18354 37.2771 5.77808C37.3648 5.97547 37.4368 6.1517 37.4941 6.29981H43.9997C44.9386 6.29981 45.6997 7.06093 45.6997 7.99981V10.2998H56.9999C58.491 10.2998 59.6999 11.5086 59.6999 12.9998V81.9999C59.6999 83.491 58.491 84.6999 56.9999 84.6999H2.9998C1.50863 84.6999 0.299805 83.491 0.299805 81.9999V12.9998C0.299805 11.5086 1.50864 10.2998 2.9998 10.2998H14.2997V7.99981C14.2997 7.06093 15.0608 6.29981 15.9997 6.29981H22.5054C22.5627 6.1517 22.6347 5.97547 22.7224 5.77808C22.9866 5.18354 23.3975 4.38686 23.9849 3.58588ZM45.6997 13.9998V11.6998H56.9999C57.7178 11.6998 58.2999 12.2818 58.2999 12.9998V81.9999C58.2999 82.7178 57.7178 83.2999 56.9999 83.2999H2.9998C2.28184 83.2999 1.6998 82.7178 1.6998 81.9999V12.9998C1.6998 12.2818 2.28183 11.6998 2.9998 11.6998H14.2997V13.9998C14.2997 14.9387 15.0608 15.6998 15.9997 15.6998H43.9997C44.9386 15.6998 45.6997 14.9387 45.6997 13.9998ZM23.67 7.20163L23.5206 7.69981H15.9997C15.834 7.69981 15.6997 7.83412 15.6997 7.99981V13.9998C15.6997 14.1655 15.834 14.2998 15.9997 14.2998H43.9997C44.1654 14.2998 44.2997 14.1655 44.2997 13.9998V7.99981C44.2997 7.83412 44.1654 7.69981 43.9997 7.69981H36.4788L36.3295 7.20186L36.3292 7.20086L36.3265 7.1922L36.3203 7.17269L36.3133 7.15104C36.3008 7.11324 36.2812 7.05531 36.254 6.98013C36.1996 6.82963 36.1151 6.61081 35.9977 6.34654C35.762 5.81607 35.3981 5.11275 34.8856 4.41373C33.8573 3.01145 32.2919 1.6998 29.9997 1.6998C27.7075 1.6998 26.1421 3.01145 25.1139 4.41373C24.6013 5.11275 24.2375 5.81607 24.0018 6.34654C23.8844 6.61081 23.7999 6.82963 23.7454 6.98013C23.7182 7.05531 23.6986 7.11324 23.6862 7.15104C23.68 7.16993 23.6756 7.18377 23.6729 7.1922L23.67 7.20163Z" fill="#722ED1"/>
<path d="M0.299805 0.299805V-0.700195H-0.700195V0.299805H0.299805ZM59.6999 0.299805H60.6999V-0.700195H59.6999V0.299805ZM59.6999 84.6999V85.6999H60.6999V84.6999H59.6999ZM0.299805 84.6999H-0.700195V85.6999H0.299805V84.6999ZM0.299805 1.2998H59.6999V-0.700195H0.299805V1.2998ZM58.6999 0.299805V84.6999H60.6999V0.299805H58.6999ZM59.6999 83.6999H0.299805V85.6999H59.6999V83.6999ZM1.2998 84.6999V0.299805H-0.700195V84.6999H1.2998Z" fill="white"/>
</svg>
