<svg width="60" height="75" viewBox="0 0 60 75" fill="none" xmlns="http://www.w3.org/2000/svg">
<path d="M49.9998 45.6998H22.9998V44.2998H49.9998V45.6998Z" fill="#722ED1"/>
<path d="M22.9998 55.6998H49.9998V54.2998H22.9998V55.6998Z" fill="#722ED1"/>
<path d="M49.9998 65.6998H22.9998V64.2998H49.9998V65.6998Z" fill="#722ED1"/>
<path d="M37.0734 18.4973L28.4973 26.9873L24.5048 22.9948L25.4948 22.0048L28.5023 25.0123L36.0884 17.5023L37.0734 18.4973Z" fill="#722ED1"/>
<path fill-rule="evenodd" clip-rule="evenodd" d="M29.9998 6.99612L30.5105 7.52083L30.5383 7.54932C30.563 7.57452 30.5997 7.61191 30.6472 7.66016C30.7424 7.75667 30.881 7.89662 31.0542 8.0695C31.4007 8.41541 31.8846 8.89245 32.4342 9.41685C33.5421 10.4739 34.8869 11.6942 35.9094 12.4322C37.3986 13.5069 39.4253 14.2304 41.1259 14.686C41.9679 14.9115 42.7133 15.0671 43.2474 15.1662C43.5142 15.2156 43.7276 15.2509 43.8732 15.2736C43.946 15.2849 44.0017 15.2932 44.0387 15.2985L44.0798 15.3042L44.0893 15.3055L44.0913 15.3058L44.8705 15.4085L44.6786 16.1707L43.9998 15.9998C44.6786 16.1707 44.6787 16.1704 44.6786 16.1707L44.6783 16.1722L44.6774 16.1754L44.6745 16.1869L44.6633 16.2302C44.6536 16.2678 44.6391 16.3229 44.62 16.3943C44.5817 16.5371 44.5248 16.7451 44.4492 17.0089C44.2981 17.5366 44.0724 18.2882 43.7726 19.1895C43.1738 20.9898 42.2763 23.397 41.0836 25.81C39.8939 28.2168 38.3933 30.665 36.5757 32.5209C34.7582 34.3766 32.5621 35.6998 29.9998 35.6998C27.4375 35.6998 25.2414 34.3766 23.4239 32.5209C21.6063 30.665 20.1057 28.2168 18.916 25.81C17.7233 23.397 16.8258 20.9898 16.227 19.1895C15.9272 18.2882 15.7015 17.5366 15.5504 17.0089C15.4748 16.7451 15.4179 16.5371 15.3796 16.3943C15.3605 16.3229 15.346 16.2678 15.3363 16.2302L15.3251 16.1869L15.3222 16.1754L15.3214 16.1722C15.3213 16.1719 15.321 16.1707 15.9998 15.9998L15.321 16.1707L15.1291 15.4085L15.9081 15.3058L15.9103 15.3055L15.9198 15.3042L15.9609 15.2985C15.9979 15.2932 16.0536 15.2849 16.1264 15.2736C16.272 15.2509 16.4854 15.2156 16.7522 15.1662C17.2863 15.0671 18.0318 14.9115 18.8738 14.686C20.5743 14.2304 22.601 13.5069 24.0902 12.4322C25.1127 11.6942 26.4575 10.4739 27.5654 9.41685C28.115 8.89245 28.5989 8.41541 28.9454 8.0695C29.1186 7.89662 29.2572 7.75667 29.3524 7.66016C29.3999 7.61191 29.4366 7.57452 29.4613 7.54932L29.4892 7.52083L29.9998 6.99612ZM42.9922 16.5427C43.036 16.5508 43.0786 16.5586 43.1197 16.566L43.1033 16.6235C42.9568 17.1349 42.7369 17.8676 42.4442 18.7476C41.8581 20.5098 40.9837 22.8526 39.8285 25.1896C38.6703 27.5328 37.247 29.8346 35.5755 31.5413C33.904 33.248 32.0459 34.2998 29.9998 34.2998C27.9538 34.2998 26.0957 33.248 24.4241 31.5413C22.7526 29.8346 21.3293 27.5328 20.1711 25.1896C19.0159 22.8526 18.1415 20.5098 17.5554 18.7476C17.2627 17.8676 17.0428 17.1349 16.8963 16.6235L16.8799 16.566C16.921 16.5586 16.9636 16.5508 17.0075 16.5427C17.5692 16.4385 18.3513 16.2753 19.236 16.0383C20.9889 15.5688 23.2122 14.7923 24.9094 13.5674C26.0171 12.7681 27.4223 11.4884 28.5318 10.4298C29.0909 9.89634 29.5826 9.41163 29.9346 9.06024L29.9998 8.99504L30.065 9.06024C30.417 9.41163 30.9087 9.89634 31.4678 10.4298C32.5773 11.4884 33.9826 12.7681 35.0902 13.5674C36.7874 14.7923 39.0108 15.5688 40.7636 16.0383C41.6483 16.2753 42.4304 16.4385 42.9922 16.5427Z" fill="#722ED1"/>
<path d="M17.7338 53.9949L16.7441 53.0047L12.7287 57.0177L10.4841 54.8667L9.51547 55.8775L12.7492 58.9765L17.7338 53.9949Z" fill="#722ED1"/>
<path d="M17.7338 43.9949L12.7492 48.9765L9.51547 45.8775L10.4841 44.8667L12.7287 47.0177L16.7441 43.0047L17.7338 43.9949Z" fill="#722ED1"/>
<path d="M17.7338 62.9949L16.7441 62.0047L12.7287 66.0177L10.4841 63.8667L9.51547 64.8775L12.7492 67.9765L17.7338 62.9949Z" fill="#722ED1"/>
<path fill-rule="evenodd" clip-rule="evenodd" d="M2.9998 0.299805C1.50864 0.299805 0.299805 1.50864 0.299805 2.99981V71.9999C0.299805 72.3727 0.375357 72.7278 0.511984 73.0508C0.921866 74.0199 1.88143 74.6999 2.9998 74.6999H56.9999C58.491 74.6999 59.6999 73.491 59.6999 71.9999V2.99981C59.6999 2.81341 59.681 2.63143 59.645 2.45566C59.3932 1.22532 58.3046 0.299805 56.9999 0.299805H2.9998ZM1.6998 2.99981C1.6998 2.28184 2.28183 1.69981 2.9998 1.69981H56.9999C57.7178 1.69981 58.2999 2.28184 58.2999 2.99981V71.9999C58.2999 72.7178 57.7178 73.2999 56.9999 73.2999H2.9998C2.28184 73.2999 1.6998 72.7178 1.6998 71.9999V2.99981Z" fill="#722ED1"/>
</svg>
