<svg width="86" height="85" viewBox="0 0 86 85" fill="none" xmlns="http://www.w3.org/2000/svg">
<path d="M2.9998 1.6998C2.28183 1.6998 1.6998 2.28183 1.6998 2.9998V65.9998C1.6998 66.7178 2.28183 67.2998 2.9998 67.2998H34.4998V68.6998H2.9998C1.50864 68.6998 0.299805 67.491 0.299805 65.9998V2.9998C0.299805 1.50864 1.50864 0.299805 2.9998 0.299805H65.9998C67.491 0.299805 68.6998 1.50864 68.6998 2.9998V34.4998H67.2998V2.9998C67.2998 2.28183 66.7178 1.6998 65.9998 1.6998H2.9998Z" fill="#722ED1"/>
<path fill-rule="evenodd" clip-rule="evenodd" d="M50.6495 52.6376C50.3821 51.4445 51.4239 50.3678 52.6251 50.5956L78.3473 55.4739C79.6628 55.7234 80.1869 57.3252 79.2733 58.3041L74.2 63.7398C74.0862 63.8617 74.0937 64.0529 74.2166 64.1656L84.7469 73.8183C85.4315 74.4459 85.4857 75.5068 84.8687 76.2009L78.2276 83.6722C77.5777 84.4033 76.4465 84.4365 75.7549 83.7449L65.2351 73.2251C65.1153 73.1052 64.92 73.1084 64.8041 73.232L59.3026 79.1003C58.3691 80.096 56.7021 79.6412 56.4036 78.3094L50.6495 52.6376ZM52.3643 51.9711C52.1523 51.9309 51.9684 52.1209 52.0156 52.3314L57.7697 78.0032C57.8223 78.2382 58.1165 78.3185 58.2813 78.1428L63.7828 72.2745C64.4396 71.5739 65.546 71.556 66.2251 72.2351L76.7449 82.7549C76.8669 82.877 77.0665 82.8711 77.1812 82.7421L83.8223 75.2708C83.9312 75.1483 83.9217 74.9611 83.8008 74.8503L73.2706 65.1976C72.5741 64.5592 72.5318 63.4753 73.1765 62.7845L78.2498 57.3488C78.4111 57.1761 78.3186 56.8934 78.0864 56.8494L52.3643 51.9711Z" fill="#722ED1"/>
<path fill-rule="evenodd" clip-rule="evenodd" d="M14.9998 10.4998C14.9998 12.9851 12.9851 14.9998 10.4998 14.9998C8.01452 14.9998 5.9998 12.9851 5.9998 10.4998C5.9998 8.01452 8.01452 5.9998 10.4998 5.9998C12.9851 5.9998 14.9998 8.01452 14.9998 10.4998ZM13.5998 10.4998C13.5998 12.2119 12.2119 13.5998 10.4998 13.5998C8.78772 13.5998 7.3998 12.2119 7.3998 10.4998C7.3998 8.78772 8.78772 7.3998 10.4998 7.3998C12.2119 7.3998 13.5998 8.78772 13.5998 10.4998Z" fill="#722ED1"/>
<path d="M19.9998 9.9998H29.9998V11.3998H19.9998V9.9998Z" fill="#722ED1"/>
<path d="M44.9998 9.9998H34.9998V11.3998H44.9998V9.9998Z" fill="#722ED1"/>
<path d="M49.9998 9.9998H59.9998V11.3998H49.9998V9.9998Z" fill="#722ED1"/>
<path d="M23.5048 26.5048L15.2119 34.7977C14.548 35.4616 14.548 36.538 15.2119 37.2019L23.5048 45.4948L24.4948 44.5048L16.2019 36.2119C16.0847 36.0948 16.0847 35.9048 16.2019 35.7877L24.4948 27.4948L23.5048 26.5048Z" fill="#722ED1"/>
<path d="M53.7877 34.7977L45.4948 26.5048L44.5048 27.4948L52.7977 35.7877C52.9149 35.9048 52.9149 36.0948 52.7977 36.2119L44.5048 44.5048L45.4948 45.4948L53.7877 37.2019C54.4516 36.538 54.4516 35.4616 53.7877 34.7977Z" fill="#722ED1"/>
<path d="M31.6336 43.7969L39.1336 27.7969L37.866 27.2027L30.366 43.2027L31.6336 43.7969Z" fill="#722ED1"/>
</svg>
