<svg width="63" height="113" viewBox="0 0 63 113" fill="none" xmlns="http://www.w3.org/2000/svg">
<path d="M20.2998 68.9998V57.9998H21.6998V68.9998H20.2998Z" fill="#722ED1"/>
<path d="M42.2998 68.9998V57.9998H43.6998V68.9998H42.2998Z" fill="#722ED1"/>
<path d="M31.2998 72.9998V53.9998H32.6998V72.9998H31.2998Z" fill="#722ED1"/>
<path fill-rule="evenodd" clip-rule="evenodd" d="M39.9998 34.4998C39.9998 39.1942 36.1942 42.9998 31.4998 42.9998C26.8054 42.9998 22.9998 39.1942 22.9998 34.4998C22.9998 29.8054 26.8054 25.9998 31.4998 25.9998C36.1942 25.9998 39.9998 29.8054 39.9998 34.4998ZM38.5998 34.4998C38.5998 38.421 35.421 41.5998 31.4998 41.5998C27.5786 41.5998 24.3998 38.421 24.3998 34.4998C24.3998 30.5786 27.5786 27.3998 31.4998 27.3998C35.421 27.3998 38.5998 30.5786 38.5998 34.4998Z" fill="#722ED1"/>
<path fill-rule="evenodd" clip-rule="evenodd" d="M31.4998 0.0400391L31.9787 0.489276C47.3189 14.8791 52.5269 35.4931 53.7134 56.2235L61.3232 63.8333C62.2046 64.7147 62.6998 65.9101 62.6998 67.1567V78.4998C62.6998 80.5433 61.0433 82.1998 58.9998 82.1998H53.5188C53.4206 83.6122 52.2434 84.6998 50.8305 84.6998H46.1897L48.2877 86.7977C49.3586 87.8687 48.6001 89.6998 47.0856 89.6998H16.414C14.8995 89.6998 14.141 87.8687 15.2119 86.7977L17.3099 84.6998H12.1691C10.7562 84.6998 9.57898 83.6122 9.48082 82.1998H3.9998C1.95635 82.1998 0.299805 80.5433 0.299805 78.4998V67.1567C0.299805 65.9101 0.79498 64.7147 1.6764 63.8333L9.28617 56.2235C10.4727 35.4931 15.6807 14.8791 31.0209 0.489276L31.4998 0.0400391ZM19.2898 84.6998H44.2099L47.2977 87.7877C47.4867 87.9767 47.3529 88.2998 47.0856 88.2998H16.414C16.1467 88.2998 16.0129 87.9767 16.2019 87.7877L19.2898 84.6998ZM50.8305 83.2998H12.1691C11.48 83.2998 10.9152 82.767 10.8764 82.086C9.28633 54.1703 10.6426 21.9944 31.4998 1.96489C52.357 21.9944 53.7133 54.1703 52.1232 82.0861C52.0844 82.767 51.5196 83.2998 50.8305 83.2998ZM53.5962 80.7998H58.9998C60.2701 80.7998 61.2998 79.7701 61.2998 78.4998V67.1567C61.2998 66.2814 60.9521 65.4421 60.3333 64.8232L53.8195 58.3094C54.1585 65.9188 53.9833 73.5163 53.5962 80.7998ZM9.18013 58.3094C8.84111 65.9188 9.01627 73.5163 9.40343 80.7998H3.9998C2.72955 80.7998 1.6998 79.7701 1.6998 78.4998V67.1567C1.6998 66.2814 2.04748 65.4421 2.66635 64.8232L9.18013 58.3094Z" fill="#722ED1"/>
<path d="M20.2998 93.9998V105H21.6998V93.9998H20.2998Z" fill="#722ED1"/>
<path d="M42.2998 93.9998V105H43.6998V93.9998H42.2998Z" fill="#722ED1"/>
<path d="M31.2998 93.9998V113H32.6998V93.9998H31.2998Z" fill="#722ED1"/>
</svg>
