<svg width="58" height="69" viewBox="0 0 58 69" fill="none" xmlns="http://www.w3.org/2000/svg">
<path fill-rule="evenodd" clip-rule="evenodd" d="M29.7001 57.9917C45.3929 57.6199 58 44.7822 58 29C58 12.9837 45.0163 0 29 0C12.9837 0 0 12.9837 0 29C0 44.7823 12.6072 57.62 28.3001 57.9917V61.8436C27.0314 62.1163 26.0324 63.1152 25.7597 64.384H8.70001V65.784H25.7598C26.0811 67.2782 27.4097 68.3981 29 68.3981C30.5902 68.3981 31.9188 67.2782 32.2401 65.784H49.7142V64.384H32.2402C31.9675 63.1154 30.9687 62.1165 29.7001 61.8436V57.9917ZM29 56.6C35.2743 56.6 41.0596 54.5064 45.6955 50.9796C45.4872 41.9376 38.0921 34.6717 29 34.6717C19.9079 34.6717 12.5128 41.9375 12.3045 50.9796C16.9403 54.5064 22.7257 56.6 29 56.6ZM31.7997 33.4869C39.9881 34.7584 46.3614 41.5187 47.0401 49.8887C52.8951 44.8277 56.6 37.3465 56.6 29C56.6 13.7569 44.2431 1.4 29 1.4C13.7569 1.4 1.4 13.7569 1.4 29C1.4 37.3465 5.1049 44.8277 10.9599 49.8887C11.6386 41.5187 18.0118 34.7583 26.2003 33.4869C23.0019 32.3388 20.7143 29.2796 20.7143 25.6861C20.7143 21.11 24.4239 17.4004 29 17.4004C33.5761 17.4004 37.2857 21.11 37.2857 25.6861C37.2857 29.2796 34.9981 32.3388 31.7997 33.4869ZM29 32.5718C32.8029 32.5718 35.8857 29.489 35.8857 25.6861C35.8857 21.8832 32.8029 18.8004 29 18.8004C25.1971 18.8004 22.1143 21.8832 22.1143 25.6861C22.1143 29.489 25.1971 32.5718 29 32.5718ZM30.9142 65.0838C30.9142 66.141 30.0572 66.9981 29 66.9981C27.9427 66.9981 27.0857 66.141 27.0857 65.0838C27.0857 64.0266 27.9427 63.1695 29 63.1695C30.0572 63.1695 30.9142 64.0266 30.9142 65.0838Z" fill="#722ED1"/>
</svg>
