<svg width="73" height="65" viewBox="0 0 73 65" fill="none" xmlns="http://www.w3.org/2000/svg">
<path fill-rule="evenodd" clip-rule="evenodd" d="M72.7 12.4266C72.8979 11.9596 73 11.4835 73 11C73 4.81286 56.8823 0 37 0C17.1177 0 0 4.92487 0 11C0 11.4694 0.102207 11.932 0.3 12.386V52.6665H0.366179C0.638057 54.3199 1.73163 55.8198 3.3496 57.1283C5.23364 58.6519 7.91717 59.993 11.1712 61.106C17.686 63.3345 26.6411 64.7003 36.5 64.7003C46.3589 64.7003 55.314 63.3345 61.8288 61.106C65.0828 59.993 67.7664 58.6519 69.6504 57.1283C71.5284 55.6095 72.6999 53.8328 72.7 51.8577C72.7 51.8578 72.7 51.8576 72.7 51.8577V12.4266ZM71.6 11C71.6 11.8518 71.0306 12.9336 69.3511 14.1468C67.7038 15.3369 65.2298 16.4667 62.0467 17.4393C55.6979 19.3792 46.8422 20.6 37 20.6C27.1581 20.6 18.0464 19.3793 11.4394 17.4351C8.12666 16.4603 5.52243 15.3263 3.7781 14.1278C1.98607 12.8966 1.4 11.8155 1.4 11C1.4 10.1845 1.98607 9.10343 3.7781 7.8722C5.52243 6.67375 8.12666 5.53969 11.4394 4.56488C18.0464 2.62069 27.1581 1.4 37 1.4C46.8453 1.4 55.7013 2.59347 62.0494 4.51952C65.2321 5.48517 67.7038 6.61108 69.349 7.80435C71.0212 9.01719 71.6 10.1127 71.6 11ZM71.3 14.3501C66.6623 18.787 53.0592 22 37 22C20.8336 22 6.4949 18.7439 1.7 14.261V23.5234C1.7 24.9014 2.51521 26.319 4.22993 27.7057C5.93869 29.0876 8.45402 30.363 11.6243 31.4474C17.9579 33.6138 26.7528 34.9663 36.5 34.9663C46.2472 34.9663 55.0421 33.6138 61.3757 31.4474C64.546 30.363 67.0613 29.0876 68.7701 27.7057C70.4848 26.319 71.3 24.9014 71.3 23.5234V14.3501ZM71.3 27.1614C70.8436 27.7338 70.2877 28.2789 69.6504 28.7943C67.7664 30.3179 65.0828 31.659 61.8288 32.7721C55.314 35.0005 46.3589 36.3663 36.5 36.3663C26.6411 36.3663 17.686 35.0005 11.1712 32.7721C7.91717 31.659 5.23364 30.3179 3.3496 28.7943C2.71232 28.2789 2.1564 27.7338 1.7 27.1614V38.0957C1.7 39.4736 2.51521 40.8913 4.22993 42.278C5.93869 43.6598 8.45402 44.9353 11.6243 46.0197C17.9579 48.1861 26.7528 49.5386 36.5 49.5386C46.2472 49.5386 55.0421 48.1861 61.3757 46.0197C64.546 44.9353 67.0613 43.6598 68.7701 42.278C70.4848 40.8913 71.3 39.4736 71.3 38.0957V27.1614ZM71.3 41.7337C70.8436 42.3061 70.2877 42.8512 69.6504 43.3665C67.7664 44.8902 65.0828 46.2313 61.8288 47.3443C55.314 49.5728 46.3589 50.9386 36.5 50.9386C26.6411 50.9386 17.686 49.5728 11.1712 47.3443C7.91717 46.2313 5.23364 44.8902 3.3496 43.3665C2.71232 42.8512 2.1564 42.3061 1.7 41.7337V51.8574C1.7 53.2354 2.51521 54.653 4.22993 56.0397C5.93869 57.4216 8.45402 58.697 11.6243 59.7814C17.9579 61.9478 26.7528 63.3003 36.5 63.3003C46.2472 63.3003 55.0421 61.9478 61.3757 59.7814C64.546 58.697 67.0613 57.4216 68.7701 56.0397C70.4847 54.6531 71.2999 53.2356 71.3 51.8577C71.3 51.8576 71.3 51.8578 71.3 51.8577V41.7337Z" fill="#722ED1"/>
</svg>
