<svg width="16" height="16" viewBox="0 0 16 16" fill="none" xmlns="http://www.w3.org/2000/svg">
<path d="M15.9563 4.70406C15.9188 3.85391 15.7813 3.26945 15.5844 2.763C15.3812 2.22542 15.0686 1.74412 14.6591 1.34402C14.259 0.937686 13.7745 0.62195 13.2432 0.421959C12.7338 0.22502 12.1524 0.0875418 11.3023 0.0500587C10.4458 0.00940127 10.1739 0 8.00157 0C5.82927 0 5.55736 0.00940127 4.70405 0.0468843C3.8539 0.0843673 3.26944 0.221968 2.76311 0.418784C2.22541 0.62195 1.74412 0.934512 1.34401 1.34402C0.937684 1.74412 0.62207 2.22859 0.421958 2.75995C0.22502 3.26945 0.0875416 3.85074 0.0500586 4.70088C0.00940125 5.55738 0 5.82928 0 8.00159C0 10.1739 0.00940125 10.4458 0.0468842 11.2991C0.0843671 12.1493 0.221967 12.7337 0.418905 13.2402C0.62207 13.7778 0.937684 14.2591 1.34401 14.6592C1.74412 15.0655 2.22859 15.3812 2.75994 15.5812C3.26944 15.7782 3.85073 15.9156 4.70099 15.9531C5.55419 15.9907 5.82621 16 7.99852 16C10.1708 16 10.4427 15.9907 11.296 15.9531C12.1462 15.9156 12.7306 15.7782 13.237 15.5812C14.3123 15.1655 15.1624 14.3153 15.5781 13.2402C15.7749 12.7307 15.9125 12.1493 15.95 11.2991C15.9875 10.4458 15.9969 10.1739 15.9969 8.00159C15.9969 5.82928 15.9937 5.55738 15.9563 4.70406ZM14.5154 11.2366C14.481 12.018 14.3497 12.44 14.2403 12.7213C13.9715 13.4183 13.4183 13.9715 12.7212 14.2404C12.4399 14.3498 12.0149 14.481 11.2366 14.5153C10.3927 14.5529 10.1396 14.5622 8.00474 14.5622C5.86992 14.5622 5.61365 14.5529 4.77279 14.5153C3.99138 14.481 3.56942 14.3498 3.28812 14.2404C2.94125 14.1122 2.62551 13.909 2.36924 13.6433C2.10356 13.3839 1.9004 13.0713 1.7722 12.7244C1.6628 12.4431 1.53155 12.018 1.49724 11.2398C1.45964 10.3959 1.45036 10.1426 1.45036 8.00781C1.45036 5.87299 1.45964 5.61671 1.49724 4.77597C1.53155 3.99457 1.6628 3.57261 1.7722 3.2913C1.9004 2.94431 2.10356 2.6287 2.37241 2.3723C2.63174 2.10662 2.9443 1.90345 3.29129 1.77538C3.5726 1.66598 3.99773 1.53473 4.77596 1.5003C5.61988 1.46281 5.8731 1.45341 8.00779 1.45341C10.1458 1.45341 10.3989 1.46281 11.2398 1.5003C12.0212 1.53473 12.4431 1.66598 12.7244 1.77538C13.0713 1.90345 13.387 2.10662 13.6433 2.3723C13.909 2.63175 14.1121 2.94431 14.2403 3.2913C14.3497 3.57261 14.481 3.99762 14.5154 4.77597C14.5529 5.61989 14.5623 5.87299 14.5623 8.00781C14.5623 10.1426 14.5529 10.3927 14.5154 11.2366Z" fill="#2C2E32"/>
<path d="M8.00179 3.8916C5.73266 3.8916 3.8916 5.73254 3.8916 8.00179C3.8916 10.271 5.73266 12.112 8.00179 12.112C10.271 12.112 12.112 10.271 12.112 8.00179C12.112 5.73254 10.271 3.8916 8.00179 3.8916ZM8.00179 10.668C6.5297 10.668 5.33561 9.47401 5.33561 8.00179C5.33561 6.52958 6.5297 5.33561 8.00179 5.33561C9.47401 5.33561 10.668 6.52958 10.668 8.00179C10.668 9.47401 9.47401 10.668 8.00179 10.668Z" fill="#2C2E32"/>
<path d="M13.2342 3.7281C13.2342 4.25799 12.8045 4.68765 12.2745 4.68765C11.7446 4.68765 11.3149 4.25799 11.3149 3.7281C11.3149 3.19809 11.7446 2.76855 12.2745 2.76855C12.8045 2.76855 13.2342 3.19809 13.2342 3.7281Z" fill="#2C2E32"/>
</svg>
