<svg width="75" height="66" viewBox="0 0 75 66" fill="none" xmlns="http://www.w3.org/2000/svg">
<path d="M63.4999 8.4998H65.4999V10.4998H63.4999V8.4998Z" fill="#722ED1"/>
<path d="M27.9999 9.4998H7.99986V10.8998H27.9999V9.4998Z" fill="#722ED1"/>
<path fill-rule="evenodd" clip-rule="evenodd" d="M72 0.299808C73.4911 0.299808 74.7 1.50864 74.7 2.99981V16.9998C74.7 18.491 73.4911 19.6998 72 19.6998L2.99998 19.6998C1.50882 19.6998 0.299988 18.491 0.299988 16.9998L0.299988 2.9998C0.299988 1.50864 1.50882 0.299805 2.99999 0.299805L72 0.299808ZM73.3 2.99981C73.3 2.28184 72.718 1.69981 72 1.69981L2.99999 1.6998C2.28201 1.6998 1.69998 2.28183 1.69998 2.9998L1.69998 16.9998C1.69998 17.7178 2.28201 18.2998 2.99998 18.2998L72 18.2998C72.718 18.2998 73.3 17.7178 73.3 16.9998V2.99981Z" fill="#722ED1"/>
<path d="M65.4999 31.4998H63.4999V33.4998H65.4999V31.4998Z" fill="#722ED1"/>
<path d="M7.99986 32.4998H27.9999V33.8998H7.99986V32.4998Z" fill="#722ED1"/>
<path fill-rule="evenodd" clip-rule="evenodd" d="M72 23.2998C73.4911 23.2998 74.7 24.5086 74.7 25.9998V39.9998C74.7 41.491 73.4911 42.6998 72 42.6998L2.99998 42.6998C1.50882 42.6998 0.299988 41.491 0.299988 39.9998L0.299988 25.9998C0.299988 24.5086 1.50882 23.2998 2.99999 23.2998L72 23.2998ZM73.3 25.9998C73.3 25.2818 72.718 24.6998 72 24.6998L2.99999 24.6998C2.28201 24.6998 1.69998 25.2818 1.69998 25.9998L1.69998 39.9998C1.69998 40.7178 2.28201 41.2998 2.99998 41.2998H72C72.718 41.2998 73.3 40.7178 73.3 39.9998V25.9998Z" fill="#722ED1"/>
<path d="M63.4999 54.4998H65.4999V56.4998H63.4999V54.4998Z" fill="#722ED1"/>
<path d="M27.9999 55.4998H7.99986V56.8998H27.9999V55.4998Z" fill="#722ED1"/>
<path fill-rule="evenodd" clip-rule="evenodd" d="M74.7 48.9998C74.7 47.5086 73.4911 46.2998 72 46.2998L2.99999 46.2998C1.50882 46.2998 0.299988 47.5086 0.299988 48.9998L0.299988 62.9998C0.299988 64.491 1.50882 65.6998 2.99998 65.6998H72C73.4911 65.6998 74.7 64.491 74.7 62.9998V48.9998ZM72 47.6998C72.718 47.6998 73.3 48.2818 73.3 48.9998V62.9998C73.3 63.7178 72.718 64.2998 72 64.2998H2.99998C2.28201 64.2998 1.69998 63.7178 1.69998 62.9998L1.69998 48.9998C1.69998 48.2818 2.28201 47.6998 2.99999 47.6998L72 47.6998Z" fill="#722ED1"/>
</svg>
