<svg width="76" height="69" viewBox="0 0 76 69" fill="none" xmlns="http://www.w3.org/2000/svg">
<path d="M7.99976 5.99981H9.99976V7.99981H7.99976V5.99981Z" fill="#722ED1"/>
<path d="M14.9998 5.99981H12.9998V7.99981H14.9998V5.99981Z" fill="#722ED1"/>
<path d="M17.9998 5.99981H19.9998V7.99981H17.9998V5.99981Z" fill="#722ED1"/>
<path d="M70.9998 5.99981H57.9998V7.39981H70.9998V5.99981Z" fill="#722ED1"/>
<path fill-rule="evenodd" clip-rule="evenodd" d="M13.9998 19.9998V27.9998H21.9998V24.3998H31.2128C30.5475 24.6055 29.8905 24.8397 29.2437 25.1019C26.3087 26.2918 23.641 28.0361 21.3931 30.2361C19.1453 32.4362 17.3613 35.0488 16.144 37.9253C15.5847 39.2468 15.1501 40.612 14.8436 42.0038C13.2593 42.0851 11.9998 43.3953 11.9998 44.9998C11.9998 46.6567 13.3429 47.9998 14.9998 47.9998C16.6566 47.9998 17.9998 46.6567 17.9998 44.9998C17.9998 43.7779 17.2692 42.7266 16.221 42.2588C16.5085 40.9666 16.9136 39.6989 17.4333 38.471C18.5778 35.7665 20.2559 33.3081 22.3724 31.2367C24.4889 29.1652 27.0024 27.5212 29.7697 26.3993C31.4993 25.6982 33.3067 25.2096 35.1506 24.9418C35.5456 26.1372 36.672 26.9998 37.9998 26.9998C39.3714 26.9998 40.5281 26.0793 40.8856 24.8223C43.063 25.0464 45.2 25.5764 47.2298 26.3993C49.9972 27.5212 52.5106 29.1652 54.6272 31.2367C56.7436 33.3081 58.4217 35.7665 59.5663 38.471C60.086 39.6989 60.4911 40.9666 60.7785 42.2588C59.7303 42.7265 58.9998 43.7779 58.9998 44.9998C58.9998 46.6567 60.3429 47.9998 61.9998 47.9998C63.6566 47.9998 64.9998 46.6567 64.9998 44.9998C64.9998 43.3954 63.7402 42.0851 62.156 42.0038C61.8495 40.612 61.4149 39.2468 60.8556 37.9253C59.6382 35.0488 57.8543 32.4362 55.6064 30.2361C53.3586 28.0361 50.6908 26.2918 47.7558 25.1019C47.109 24.8397 46.452 24.6055 45.7867 24.3998H54.9998V27.9998H62.9998V19.9998H54.9998V22.9998H40.8291C40.4172 21.8346 39.306 20.9998 37.9998 20.9998C36.6935 20.9998 35.5823 21.8346 35.1705 22.9998H21.9998V19.9998H13.9998ZM15.3998 21.3998V26.5998H20.5998V21.3998H15.3998ZM56.3998 21.3998H61.5998V26.5998H56.3998V21.3998ZM39.5998 23.9998C39.5998 24.8835 38.8834 25.5998 37.9998 25.5998C37.1161 25.5998 36.3998 24.8835 36.3998 23.9998C36.3998 23.1162 37.1161 22.3998 37.9998 22.3998C38.8834 22.3998 39.5998 23.1162 39.5998 23.9998ZM14.9998 46.5998C15.8834 46.5998 16.5998 45.8835 16.5998 44.9998C16.5998 44.1162 15.8834 43.3998 14.9998 43.3998C14.1161 43.3998 13.3998 44.1162 13.3998 44.9998C13.3998 45.8835 14.1161 46.5998 14.9998 46.5998ZM63.5998 44.9998C63.5998 45.8835 62.8834 46.5998 61.9998 46.5998C61.1161 46.5998 60.3998 45.8835 60.3998 44.9998C60.3998 44.1162 61.1161 43.3998 61.9998 43.3998C62.8834 43.3998 63.5998 44.1162 63.5998 44.9998Z" fill="#722ED1"/>
<path d="M37.2998 56.9998V65.9998H38.6998V56.9998H37.2998Z" fill="#722ED1"/>
<path fill-rule="evenodd" clip-rule="evenodd" d="M3.4998 60.1999H32.9998V66.9998C32.9998 68.1044 33.8952 68.9998 34.9998 68.9998H40.9998C42.1043 68.9998 42.9998 68.1044 42.9998 66.9998V60.1999H72.4999C73.991 60.1999 75.1999 58.991 75.1999 57.4999V3.49981C75.1999 2.00864 73.991 0.799807 72.4999 0.799807L3.4998 0.799805C2.00864 0.799805 0.799807 2.00863 0.799807 3.4998L0.799805 57.4999C0.799805 58.991 2.00863 60.1999 3.4998 60.1999ZM72.4999 2.19981C73.2178 2.19981 73.7999 2.78184 73.7999 3.49981V11.2998L2.1998 11.2998L2.1998 3.4998C2.1998 2.78184 2.78183 2.1998 3.4998 2.1998L72.4999 2.19981ZM2.1998 12.6998L2.1998 57.4999C2.1998 58.2178 2.78183 58.7999 3.4998 58.7999H32.9998V55.9998C32.9998 55.4025 33.2616 54.8663 33.6768 54.4998C33.2616 54.1333 32.9998 53.5972 32.9998 52.9998V51.9998C32.9998 50.8952 33.8952 49.9998 34.9998 49.9998H35.0368L32.0049 42.6365C31.8386 42.2326 31.8341 41.7801 31.9924 41.373L35.0994 33.3837C35.3535 32.7302 35.9827 32.2998 36.6838 32.2998H39.3157C40.0168 32.2998 40.646 32.7302 40.9001 33.3836L44.0071 41.373C44.1654 41.7801 44.1609 42.2326 43.9946 42.6365L40.9626 49.9998H40.9998C42.1043 49.9998 42.9998 50.8952 42.9998 51.9998V52.9998C42.9998 53.5972 42.7379 54.1333 42.3227 54.4998C42.7379 54.8663 42.9998 55.4025 42.9998 55.9998V58.7999H72.4999C73.2178 58.7999 73.7999 58.2178 73.7999 57.4999L73.7999 12.6998L2.1998 12.6998ZM36.6838 33.6998C36.5601 33.6998 36.4491 33.7758 36.4042 33.8911L33.2972 41.8805C33.2693 41.9523 33.2701 42.0321 33.2994 42.1034L36.4685 49.7998H37.2998V41.1998H35.9998V39.7998H39.9998V41.1998H38.6998V49.7998H39.5309L42.7001 42.1034C42.7294 42.0321 42.7302 41.9523 42.7023 41.8805L39.5953 33.8911C39.5504 33.7758 39.4394 33.6998 39.3157 33.6998H36.6838ZM34.3998 51.9998C34.3998 51.6684 34.6684 51.3998 34.9998 51.3998H40.9998C41.3311 51.3998 41.5998 51.6684 41.5998 51.9998V52.9998C41.5998 53.3312 41.3311 53.5998 40.9998 53.5998H34.9998C34.6684 53.5998 34.3998 53.3312 34.3998 52.9998V51.9998ZM34.9998 55.3998C34.6684 55.3998 34.3998 55.6684 34.3998 55.9998V66.9998C34.3998 67.3312 34.6684 67.5998 34.9998 67.5998H40.9998C41.3311 67.5998 41.5998 67.3312 41.5998 66.9998V55.9998C41.5998 55.6684 41.3311 55.3998 40.9998 55.3998H34.9998Z" fill="#722ED1"/>
</svg>
