<svg width="40" height="40" viewBox="0 0 40 40" fill="none" xmlns="http://www.w3.org/2000/svg">
<rect width="40" height="40" fill="#722ED1"/>
<path d="M12.834 27.1V25H5.26V15.2H6.982V23.446H11.574V15.2H13.282V23.446H14.5L14.262 27.1H12.834ZM16.3134 25V15.2H24.3074V25H22.5854V16.754H18.0354V25H16.3134ZM27.1071 25V15.2H30.9711C32.1098 15.2 33.0151 15.4987 33.6871 16.096C34.3591 16.6933 34.6951 17.496 34.6951 18.504C34.6951 19.5587 34.3218 20.38 33.5751 20.968C32.8378 21.556 31.9044 21.85 30.7751 21.85H28.8291V25H27.1071ZM28.8291 20.296H30.8311C31.4751 20.296 31.9884 20.1327 32.3711 19.806C32.7538 19.4793 32.9451 19.05 32.9451 18.518C32.9451 17.958 32.7538 17.5287 32.3711 17.23C31.9978 16.922 31.4844 16.768 30.8311 16.768H28.8291V20.296Z" fill="white"/>
</svg>
