<svg width="664" height="1489" viewBox="0 0 664 1489" fill="none" xmlns="http://www.w3.org/2000/svg">
<path d="M382.5 409L466 311" stroke="#722ED1"/>
<circle cx="150" cy="1021" r="149.5" fill="white" stroke="#E8E9EF"/>
<circle cx="448" cy="1319" r="169.5" fill="white" stroke="#E8E9EF"/>
<circle cx="508" cy="159" r="158.5" fill="white" stroke="#E8E9EF"/>
<path d="M174 873L266 721.5" stroke="#722ED1"/>
<path d="M448 1148.5L388.5 729.5" stroke="#722ED1"/>
<text fill="#2C2E32" xml:space="preserve" style="white-space: pre" font-family="Gotham Pro" font-size="16" letter-spacing="0em"><tspan x="35.5312" y="1013.56">&#x41c;&#x44b; &#x433;&#x435;&#x43d;&#x435;&#x440;&#x438;&#x440;&#x443;&#x435;&#x43c; &#x43d;&#x43e;&#x432;&#x44b;&#x435; &#x438;&#x434;&#x435;&#x438; </tspan><tspan x="67.3906" y="1037.56">&#x434;&#x43b;&#x44f; &#x432;&#x430;&#x448;&#x435;&#x433;&#x43e; &#x431;&#x438;&#x437;&#x43d;&#x435;&#x441;&#x430;</tspan></text>
<text fill="#2C2E32" xml:space="preserve" style="white-space: pre" font-family="Gotham Pro" font-size="16" letter-spacing="0em"><tspan x="327.727" y="1296.56">&#x41c;&#x44b; &#x441;&#x43e;&#x437;&#x434;&#x430;&#x435;&#x43c; &#x438;&#x43d;&#x434;&#x438;&#x432;&#x438;&#x434;&#x443;&#x430;&#x43b;&#x44c;&#x43d;&#x44b;&#x435; </tspan><tspan x="332.492" y="1320.56">&#x438;&#x43d;&#x442;&#x435;&#x440;&#x444;&#x435;&#x439;&#x441;&#x44b;, &#x432;&#x435;&#x431;-&#x43f;&#x440;&#x43e;&#x435;&#x43a;&#x442;&#x44b; &#x441; </tspan><tspan x="312.164" y="1344.56">&#x445;&#x43e;&#x440;&#x43e;&#x448;&#x43e; &#x43f;&#x440;&#x43e;&#x434;&#x443;&#x43c;&#x430;&#x43d;&#x43d;&#x44b;&#x43c; &#x434;&#x438;&#x437;&#x430;&#x439;&#x43d;&#x43e;&#x43c;.</tspan></text>
<path d="M376.752 248.749C396.622 277.807 425.572 299.448 459.065 310.282C492.557 321.116 528.698 320.529 561.821 308.614L561.605 308.015C528.615 319.882 492.619 320.467 459.261 309.676C425.902 298.886 397.068 277.331 377.278 248.39L376.752 248.749Z" fill="#722ED1"/>
<text fill="#2C2E32" xml:space="preserve" style="white-space: pre" font-family="Gotham Pro" font-size="16" letter-spacing="0em"><tspan x="399.711" y="118.56">&#x41c;&#x44b; &#x43f;&#x440;&#x435;&#x434;&#x43e;&#x441;&#x442;&#x430;&#x432;&#x43b;&#x44f;&#x435;&#x43c; &#x43f;&#x43e;&#x43b;&#x43d;&#x44b;&#x439; </tspan><tspan x="456.328" y="142.56">&#x441;&#x43f;&#x435;&#x43a;&#x442;&#x440; &#x443;&#x441;&#x43b;&#x443;&#x433;:&#10;</tspan><tspan x="389.688" y="166.56">&#x43e;&#x442; &#x441;&#x43e;&#x441;&#x442;&#x430;&#x432;&#x43b;&#x435;&#x43d;&#x438;&#x44f; &#x442;&#x435;&#x445;&#x43d;&#x438;&#x447;&#x435;&#x441;&#x43a;&#x43e;&#x433;&#x43e; </tspan><tspan x="409.57" y="190.56">&#x437;&#x430;&#x434;&#x430;&#x43d;&#x438;&#x44f; &#x434;&#x43e; &#x434;&#x430;&#x43b;&#x44c;&#x43d;&#x435;&#x439;&#x448;&#x435;&#x433;&#x43e; </tspan><tspan x="407.688" y="214.56">&#x441;&#x43e;&#x43f;&#x440;&#x43e;&#x432;&#x43e;&#x436;&#x434;&#x435;&#x43d;&#x438;&#x44f; &#x43f;&#x440;&#x43e;&#x435;&#x43a;&#x442;&#x430;.</tspan></text>
<path d="M568.208 1198.79C551.856 1182.44 532.339 1169.6 510.851 1161.05C489.364 1152.5 466.358 1148.42 443.241 1149.07C420.124 1149.71 397.382 1155.07 376.407 1164.81C355.432 1174.55 336.664 1188.47 321.252 1205.71L321.76 1206.16C337.11 1188.99 355.802 1175.13 376.694 1165.43C397.585 1155.73 420.236 1150.39 443.26 1149.75C466.284 1149.1 489.198 1153.16 510.599 1161.68C532.001 1170.19 551.44 1182.99 567.727 1199.27L568.208 1198.79Z" fill="#722ED1"/>
<path d="M292.265 973.454C283.451 947.079 267.477 923.674 246.13 905.852C224.782 888.03 198.9 876.493 171.375 872.531C143.849 868.568 115.764 872.335 90.2561 883.411C64.7479 894.487 42.821 912.437 26.9242 935.254L27.4173 935.598C43.2504 912.871 65.0894 894.994 90.4954 883.962C115.901 872.931 143.874 869.179 171.289 873.125C198.704 877.072 224.482 888.563 245.745 906.313C267.007 924.064 282.916 947.375 291.695 973.645L292.265 973.454Z" fill="#722ED1"/>
<g filter="url(#filter0_d)">
<circle cx="304" cy="548" r="230" fill="white"/>
</g>
<text fill="#2C2E32" xml:space="preserve" style="white-space: pre" font-family="Gotham Pro" font-size="30" letter-spacing="0em"><tspan x="260.143" y="528.55">&#x41e; &#x43d;&#x430;&#x441;</tspan></text>
<text fill="#2C2E32" xml:space="preserve" style="white-space: pre" font-family="Gotham Pro" font-size="16" letter-spacing="0em"><tspan x="132.805" y="565.56">&#x41c;&#x44b; - &#x43a;&#x43e;&#x43c;&#x430;&#x43d;&#x434;&#x430; &#x440;&#x430;&#x437;&#x440;&#x430;&#x431;&#x43e;&#x442;&#x447;&#x438;&#x43a;&#x43e;&#x432; IT &#x43f;&#x440;&#x43e;&#x435;&#x43a;&#x442;&#x43e;&#x432; </tspan><tspan x="241.18" y="589.56">&#x434;&#x43b;&#x44f; &#x437;&#x430;&#x43a;&#x430;&#x437;&#x447;&#x438;&#x43a;&#x43e;&#x432;</tspan></text>
<defs>
<filter id="filter0_d" x="4" y="252" width="600" height="600" filterUnits="userSpaceOnUse" color-interpolation-filters="sRGB">
<feFlood flood-opacity="0" result="BackgroundImageFix"/>
<feColorMatrix in="SourceAlpha" type="matrix" values="0 0 0 0 0 0 0 0 0 0 0 0 0 0 0 0 0 0 127 0"/>
<feOffset dy="4"/>
<feGaussianBlur stdDeviation="35"/>
<feColorMatrix type="matrix" values="0 0 0 0 0.874271 0 0 0 0 0.883808 0 0 0 0 0.908333 0 0 0 0.35 0"/>
<feBlend mode="normal" in2="BackgroundImageFix" result="effect1_dropShadow"/>
<feBlend mode="normal" in="SourceGraphic" in2="effect1_dropShadow" result="shape"/>
</filter>
</defs>
</svg>
