<svg width="1170" height="1099" viewBox="0 0 1170 1099" fill="none" xmlns="http://www.w3.org/2000/svg">
<path d="M276.5 486L379 429.5" stroke="#722ED1"/>
<path d="M701 654L604 468" stroke="#722ED1"/>
<text fill="#2C2E32" xml:space="preserve" style="white-space: pre" font-family="Gotham Pro" font-size="16" letter-spacing="0em"><tspan x="879.727" y="256.56">&#x41c;&#x44b; &#x441;&#x43e;&#x437;&#x434;&#x430;&#x435;&#x43c; &#x438;&#x43d;&#x434;&#x438;&#x432;&#x438;&#x434;&#x443;&#x430;&#x43b;&#x44c;&#x43d;&#x44b;&#x435; </tspan><tspan x="884.492" y="280.56">&#x438;&#x43d;&#x442;&#x435;&#x440;&#x444;&#x435;&#x439;&#x441;&#x44b;, &#x432;&#x435;&#x431;-&#x43f;&#x440;&#x43e;&#x435;&#x43a;&#x442;&#x44b; &#x441; </tspan><tspan x="864.164" y="304.56">&#x445;&#x43e;&#x440;&#x43e;&#x448;&#x43e; &#x43f;&#x440;&#x43e;&#x434;&#x443;&#x43c;&#x430;&#x43d;&#x43d;&#x44b;&#x43c; &#x434;&#x438;&#x437;&#x430;&#x439;&#x43d;&#x43e;&#x43c;.</tspan></text>
<circle cx="1000" cy="279" r="169.5" stroke="#E8E9EF"/>
<path d="M855.396 189.615C843.237 209.286 835.218 231.231 831.832 254.108C828.446 276.985 829.763 300.312 835.703 322.662C841.642 345.012 852.079 365.916 866.376 384.093C880.672 402.271 898.527 417.34 918.848 428.38L919.173 427.782C898.934 416.786 881.15 401.777 866.911 383.672C852.672 365.567 842.277 344.748 836.361 322.487C830.445 300.226 829.133 276.993 832.506 254.208C835.879 231.423 843.865 209.565 855.975 189.973L855.396 189.615Z" fill="#722ED1"/>
<circle cx="781" cy="869" r="229.5" stroke="#E8E9EF"/>
<path d="M753.612 640.636C698.065 647.298 646.85 673.978 609.557 715.68C572.263 757.381 551.447 811.247 551.007 867.19L551.928 867.197C552.367 811.478 573.099 757.829 610.243 716.294C647.388 674.759 698.397 648.186 753.722 641.551L753.612 640.636Z" fill="#722ED1"/>
<circle cx="206" cy="191" r="39.5" stroke="#E8E9EF"/>
<text fill="#2C2E32" xml:space="preserve" style="white-space: pre" font-family="Gotham Pro" font-size="16" letter-spacing="0em"><tspan x="611.141" y="849.56">&#x41c;&#x44b; &#x43f;&#x440;&#x435;&#x434;&#x43e;&#x441;&#x442;&#x430;&#x432;&#x43b;&#x44f;&#x435;&#x43c; &#x43f;&#x43e;&#x43b;&#x43d;&#x44b;&#x439; &#x441;&#x43f;&#x435;&#x43a;&#x442;&#x440; &#x443;&#x441;&#x43b;&#x443;&#x433;:&#10;</tspan><tspan x="611.039" y="873.56">&#x43e;&#x442; &#x441;&#x43e;&#x441;&#x442;&#x430;&#x432;&#x43b;&#x435;&#x43d;&#x438;&#x44f; &#x442;&#x435;&#x445;&#x43d;&#x438;&#x447;&#x435;&#x441;&#x43a;&#x43e;&#x433;&#x43e; &#x437;&#x430;&#x434;&#x430;&#x43d;&#x438;&#x44f; &#x434;&#x43e; </tspan><tspan x="620.008" y="897.56">&#x434;&#x430;&#x43b;&#x44c;&#x43d;&#x435;&#x439;&#x448;&#x435;&#x433;&#x43e; &#x441;&#x43e;&#x43f;&#x440;&#x43e;&#x432;&#x43e;&#x436;&#x434;&#x435;&#x43d;&#x438;&#x44f; &#x43f;&#x440;&#x43e;&#x435;&#x43a;&#x442;&#x430;.</tspan></text>
<text fill="#2C2E32" xml:space="preserve" style="white-space: pre" font-family="Gotham Pro" font-size="16" letter-spacing="0em"><tspan x="35.5312" y="558.56">&#x41c;&#x44b; &#x433;&#x435;&#x43d;&#x435;&#x440;&#x438;&#x440;&#x443;&#x435;&#x43c; &#x43d;&#x43e;&#x432;&#x44b;&#x435; &#x438;&#x434;&#x435;&#x438; </tspan><tspan x="67.3906" y="582.56">&#x434;&#x43b;&#x44f; &#x432;&#x430;&#x448;&#x435;&#x433;&#x43e; &#x431;&#x438;&#x437;&#x43d;&#x435;&#x441;&#x430;</tspan></text>
<g filter="url(#filter0_d)">
<ellipse cx="584" cy="330.5" rx="265" ry="264.5" fill="white"/>
</g>
<circle cx="150" cy="566" r="149.5" stroke="#E8E9EF"/>
<path d="M298.388 587.932C302.679 558.9 298.359 529.246 285.963 502.644C273.568 476.043 253.641 453.662 228.651 438.273L228.336 438.785C253.226 454.112 273.073 476.403 285.419 502.898C297.765 529.393 302.067 558.928 297.794 587.844L298.388 587.932Z" fill="#722ED1"/>
<text fill="#2C2E32" xml:space="preserve" style="white-space: pre" font-family="Gotham Pro" font-size="30" letter-spacing="0em"><tspan x="540.143" y="315.55">&#x41e; &#x43d;&#x430;&#x441;</tspan></text>
<text fill="#2C2E32" xml:space="preserve" style="white-space: pre" font-family="Gotham Pro" font-size="16" letter-spacing="0em"><tspan x="412.805" y="352.56">&#x41c;&#x44b; - &#x43a;&#x43e;&#x43c;&#x430;&#x43d;&#x434;&#x430; &#x440;&#x430;&#x437;&#x440;&#x430;&#x431;&#x43e;&#x442;&#x447;&#x438;&#x43a;&#x43e;&#x432; IT &#x43f;&#x440;&#x43e;&#x435;&#x43a;&#x442;&#x43e;&#x432; </tspan><tspan x="521.18" y="376.56">&#x434;&#x43b;&#x44f; &#x437;&#x430;&#x43a;&#x430;&#x437;&#x447;&#x438;&#x43a;&#x43e;&#x432;</tspan></text>
<defs>
<filter id="filter0_d" x="249" y="0" width="670" height="669" filterUnits="userSpaceOnUse" color-interpolation-filters="sRGB">
<feFlood flood-opacity="0" result="BackgroundImageFix"/>
<feColorMatrix in="SourceAlpha" type="matrix" values="0 0 0 0 0 0 0 0 0 0 0 0 0 0 0 0 0 0 127 0"/>
<feOffset dy="4"/>
<feGaussianBlur stdDeviation="35"/>
<feColorMatrix type="matrix" values="0 0 0 0 0.874271 0 0 0 0 0.883808 0 0 0 0 0.908333 0 0 0 0.35 0"/>
<feBlend mode="normal" in2="BackgroundImageFix" result="effect1_dropShadow"/>
<feBlend mode="normal" in="SourceGraphic" in2="effect1_dropShadow" result="shape"/>
</filter>
</defs>
</svg>
